<?xml version="1.0" standalone="no"?>
<!DOCTYPE svg PUBLIC "-//W3C//DTD SVG 20010904//EN"
 "http://www.w3.org/TR/2001/REC-SVG-20010904/DTD/svg10.dtd">
<svg version="1.0" xmlns="http://www.w3.org/2000/svg"
 width="180.000000pt" height="180.000000pt" viewBox="0 0 180.000000 180.000000"
 preserveAspectRatio="xMidYMid meet">
<metadata>
Created by potrace 1.11, written by Peter Selinger 2001-2013
</metadata>
<g transform="translate(0.000000,180.000000) scale(0.100000,-0.100000)"
fill="#000000" stroke="none">
<path d="M0 900 l0 -900 900 0 900 0 0 900 0 900 -900 0 -900 0 0 -900z m1090
390 c60 -22 101 -60 127 -117 47 -103 15 -182 -98 -236 l-69 -34 43 -13 c101
-30 158 -78 177 -151 34 -125 -60 -238 -225 -268 -69 -13 -555 -15 -555 -2 0
4 18 11 41 14 82 11 79 -7 79 402 0 409 3 391 -79 402 -23 3 -41 10 -41 15 0
15 557 5 600 -12z"/>
<path d="M810 1095 l0 -178 50 6 c113 14 164 67 164 172 0 106 -50 161 -159
172 l-55 6 0 -178z"/>
<path d="M810 711 c0 -158 2 -173 20 -191 40 -40 146 -12 190 50 43 61 40 185
-7 240 -35 42 -72 59 -143 67 l-60 6 0 -172z"/>
</g>
</svg>
